<svg width="188" height="224" viewBox="0 0 188 224" fill="none" xmlns="http://www.w3.org/2000/svg">
<path d="M187.033 89.2172C185.454 86.0254 182.183 84.0096 178.602 84.0096H106.742C105.549 84.0096 104.622 82.9725 104.754 81.7873L112.74 10.3746C113.21 6.2122 110.822 2.25513 106.912 0.687241C102.993 -0.899317 98.5091 0.332599 95.943 3.64571L1.94829 124.971C-0.232387 127.789 -0.617767 131.597 0.970744 134.789C2.55925 137.99 5.83027 140.006 9.41147 140.006H81.2714C82.464 140.006 83.3915 141.043 83.259 142.228L75.2736 213.641C74.8036 217.803 77.1911 221.76 81.1012 223.328C82.2386 223.785 83.4323 224 84.6072 224C87.4647 224 90.2469 222.703 92.061 220.36L186.056 99.0352C188.236 96.2167 188.612 92.409 187.033 89.2172Z" fill="#FFAA5B" fill-opacity="0.2"/>
<mask id="mask0_1_431" style="mask-type:alpha" maskUnits="userSpaceOnUse" x="0" y="0" width="188" height="224">
<path d="M187.033 89.2172C185.454 86.0254 182.183 84.0096 178.602 84.0096H106.742C105.549 84.0096 104.622 82.9725 104.754 81.7873L112.74 10.3746C113.21 6.2122 110.822 2.25513 106.912 0.687241C102.993 -0.899317 98.5091 0.332599 95.943 3.64571L1.94829 124.971C-0.232387 127.789 -0.617767 131.597 0.970744 134.789C2.55925 137.99 5.83027 140.006 9.41147 140.006H81.2714C82.464 140.006 83.3915 141.043 83.259 142.228L75.2736 213.641C74.8036 217.803 77.1911 221.76 81.1012 223.328C82.2386 223.785 83.4323 224 84.6072 224C87.4647 224 90.2469 222.703 92.061 220.36L186.056 99.0352C188.236 96.2167 188.612 92.409 187.033 89.2172Z" fill="#FFAA5B"/>
</mask>
<g mask="url(#mask0_1_431)">
</g>
</svg>
